
<svg fill="#ffffff" width="211px" height="211px" viewBox="-0.32 -0.32 32.64 32.64" xmlns="http://www.w3.org/2000/svg" stroke="#ffffff" stroke-width="0.992" transform="matrix(1, 0, 0, 1, 0, 0)rotate(0)">

<g id="SVGRepo_bgCarrier" stroke-width="0"/>

<g id="SVGRepo_tracerCarrier" stroke-linecap="round" stroke-linejoin="round" stroke="#000000" stroke-width="1.92">

<path d="M16 15.503A5.041 5.041 0 1 0 16 5.42a5.041 5.041 0 0 0 0 10.083zm0 2.215c-6.703 0-11 3.699-11 5.5v3.363h22v-3.363c0-2.178-4.068-5.5-11-5.5z"/>

</g>

<g id="SVGRepo_iconCarrier">

<path d="M16 15.503A5.041 5.041 0 1 0 16 5.42a5.041 5.041 0 0 0 0 10.083zm0 2.215c-6.703 0-11 3.699-11 5.5v3.363h22v-3.363c0-2.178-4.068-5.5-11-5.5z"/>

</g>

</svg>